<svg xmlns="http://www.w3.org/2000/svg" viewBox="0 0 128 128" role="img" aria-labelledby="title desc">
  <title id="title">Jack mark</title>
  <desc id="desc">Monograma J dentro de una órbita técnica</desc>
  <defs>
    <linearGradient id="bg" x1="0" y1="0" x2="1" y2="1"><stop stop-color="#f5c542"/><stop offset="1" stop-color="#a855f7"/></linearGradient>
    <linearGradient id="ink" x1="0" y1="0" x2="1" y2="1"><stop stop-color="#08040f"/><stop offset="1" stop-color="#17102b"/></linearGradient>
  </defs>
  <rect width="128" height="128" rx="28" fill="#0b0717"/>
  <circle cx="64" cy="64" r="43" fill="url(#bg)" opacity=".95"/>
  <path d="M79 38v40c0 13-8 20-21 20-12 0-20-7-20-18h13c0 4 2 7 7 7 5 0 8-3 8-9V38h13Z" fill="url(#ink)"/>
  <path d="M17 73c15 21 42 32 69 25 14-4 24-12 31-23" fill="none" stroke="#22d3ee" stroke-linecap="round" stroke-width="3" opacity=".8"/>
  <circle cx="111" cy="74" r="5" fill="#22d3ee"/>
</svg>
